<?xml version="1.0" encoding="UTF-8"?>
<svg id="Layer_2" data-name="Layer 2" xmlns="http://www.w3.org/2000/svg" viewBox="0 0 120 120" width="120" height="120">
  <g transform="translate(10,10)">
    <defs>
      <style>
        .cls-1 { fill: #1c3331; }
        .cls-2 { fill: #566160; }
        .cls-3 { fill: #5be0d8; }
      </style>
    </defs>
    <g id="Layer_1-2" data-name="Layer 1">
      <path class="cls-3" d="M96.18,100h-20.93c-1.34,0-2.57-.7-3.27-1.84l-14.89-24.52c-2.01-3.3-7.09-1.88-7.09,1.98v20.56c0,2.11-1.71,3.82-3.82,3.82H3.82c-2.11,0-3.82-1.71-3.82-3.82V3.82C0,1.71,1.71,0,3.82,0h42.36c2.11,0,3.82,1.71,3.82,3.82v10.09c0,3.13,3.55,4.93,6.07,3.09L78.38.73c.65-.48,1.44-.73,2.25-.73h15.55c2.11,0,3.82,1.71,3.82,3.82v16.15c0,.93-.34,1.84-.96,2.54l-24.37,27.49,24.13,22.78c.76.72,1.2,1.73,1.2,2.78v20.62c0,2.11-1.71,3.82-3.82,3.82Z"/>
      <g>
        <path class="cls-2" d="M0,79.88h20.3c3.12,0,5.66-2.53,5.66-5.66h0c0-3.12-2.53-5.66-5.66-5.66H0v11.31Z"/>
        <path class="cls-2" d="M0,55.66h8.85c2.66,0,5.24-.96,7.24-2.71l6.04-5.26c1.33-1.16.51-3.34-1.25-3.34H0s0,11.31,0,11.31Z"/>
        <path class="cls-2" d="M0,31.43h23.2c1.53,0,2.76-1.24,2.76-2.76v-5.79c0-1.53-1.24-2.76-2.76-2.76H0s0,11.31,0,11.31Z"/>
      </g>
      <path class="cls-1" d="M56.06,39.33l-3.41,5.28c-.82,1.27-.15,2.98,1.32,3.34l.98.25c1.72.43,2.26,2.62.93,3.8l-6.75,5.99c-1.92,1.71-4.72-.69-3.32-2.85l1.39-2.16c.82-1.27.15-2.97-1.32-3.34l-1.69-.42c-1.18-.3-1.9-1.49-1.61-2.68l.17-.67c.11-.43.34-.82.68-1.12l9.31-8.26c1.92-1.71,4.72.69,3.32,2.85Z"/>
    </g>
  </g>
</svg>